<?xml version="1.0" standalone="no"?>
<!DOCTYPE svg PUBLIC "-//W3C//DTD SVG 20010904//EN"
 "http://www.w3.org/TR/2001/REC-SVG-20010904/DTD/svg10.dtd">
<svg version="1.0" xmlns="http://www.w3.org/2000/svg"
 width="500.000000pt" height="500.000000pt" viewBox="0 0 968.000000 340.000000"
 preserveAspectRatio="xMidYMid meet">

<g transform="translate(0.000000,340.000000) scale(0.100000,-0.100000)"
fill="#000000" stroke="none">
<path d="M1337 2630 c-123 -21 -269 -80 -382 -156 -79 -52 -187 -154 -181
-171 3 -8 1 -11 -4 -8 -27 17 -166 -236 -202 -370 -32 -117 -32 -374 0 -490
25 -89 84 -221 133 -293 128 -188 332 -333 554 -392 101 -27 283 -37 385 -21
109 17 258 71 351 127 89 53 213 160 203 175 -3 5 0 8 7 7 7 -2 37 29 66 67
204 268 249 639 115 951 -37 87 -86 170 -100 167 -5 -1 -9 4 -8 12 5 54 -305
318 -352 300 -7 -2 -11 -1 -7 4 8 13 -142 68 -236 86 -86 16 -260 18 -342 5z
m390 -459 c127 -59 225 -183 254 -320 18 -87 8 -256 -19 -316 -44 -95 -102
-137 -193 -138 -65 0 -101 18 -127 64 -21 35 -25 36 -41 5 -39 -72 -184 -89
-258 -30 -21 16 -51 56 -67 88 -26 51 -29 67 -28 146 0 70 5 98 23 137 13 26
23 54 22 60 0 7 3 10 8 7 5 -3 19 4 31 16 66 61 220 57 257 -7 9 -15 10 -14
11 10 0 26 2 27 53 27 l54 0 6 -122 c4 -66 7 -151 7 -187 0 -79 17 -111 59
-111 59 0 93 76 94 210 1 160 -46 269 -145 334 -93 62 -210 80 -322 51 -69
-18 -149 -62 -139 -77 3 -6 1 -8 -5 -5 -16 11 -89 -79 -114 -142 -20 -49 -23
-73 -23 -191 1 -115 4 -143 23 -190 25 -63 79 -133 94 -124 6 4 8 3 5 -3 -16
-26 87 -85 181 -103 60 -12 190 -9 255 6 27 6 27 6 27 -44 l0 -51 -42 -12
c-26 -7 -92 -10 -168 -7 -109 4 -133 8 -190 32 -36 16 -73 29 -82 29 -9 1 -16
4 -15 7 1 3 -26 31 -60 63 -108 103 -153 218 -153 395 0 176 42 285 149 392
108 107 206 141 386 137 112 -3 125 -5 192 -36z m43 -637 c0 -8 -19 -13 -24
-6 -3 5 1 9 9 9 8 0 15 -2 15 -3z"/>
<path d="M1435 1841 c-47 -20 -75 -82 -75 -168 0 -128 36 -183 119 -183 62 0
95 33 112 109 34 158 -49 285 -156 242z"/>
<path d="M3597 2630 c-81 -14 -187 -50 -268 -90 -122 -62 -285 -191 -274 -218
2 -7 1 -10 -5 -7 -16 10 -99 -105 -150 -210 -76 -153 -95 -238 -95 -425 0
-186 19 -269 95 -425 49 -101 134 -220 149 -210 5 2 15 -3 22 -13 13 -15 12
-16 -3 -3 -10 7 -18 9 -18 4 0 -14 111 -108 127 -107 7 1 10 -2 8 -7 -15 -24
201 -134 335 -170 73 -20 109 -23 245 -23 145 1 169 3 250 28 172 52 287 119
413 240 129 124 224 291 267 468 53 217 14 492 -99 691 -47 83 -109 162 -126
162 -8 0 -14 8 -12 16 3 19 -112 118 -199 171 -151 92 -322 138 -504 137 -60
-1 -132 -5 -158 -9z m92 -372 c-16 -57 -11 -163 11 -220 11 -29 20 -56 20 -60
0 -11 -84 3 -107 18 -13 8 -30 29 -39 47 -22 42 -29 164 -12 197 14 26 64 48
110 49 25 1 26 -1 17 -31z m169 -13 c69 -31 70 -34 106 -176 66 -259 60 -574
-16 -828 -17 -59 -28 -77 -52 -92 -39 -25 -165 -63 -174 -54 -4 4 -7 50 -7
103 0 110 25 202 56 202 59 0 89 95 89 285 0 186 -28 285 -80 285 -53 0 -100
190 -69 280 11 30 14 32 49 27 21 -3 65 -17 98 -32z m-133 -862 c-37 -88 -51
-199 -32 -265 7 -26 6 -28 -25 -28 -81 0 -108 32 -108 122 0 125 45 186 139
187 28 1 32 -2 26 -16z"/>
<path d="M5817 2630 c-147 -26 -306 -96 -425 -187 -85 -65 -185 -171 -178
-190 3 -7 0 -12 -6 -10 -17 3 -94 -126 -127 -213 -43 -112 -61 -213 -61 -350
0 -137 18 -238 61 -350 33 -87 110 -216 127 -213 6 2 9 -4 6 -12 -8 -19 133
-160 214 -214 87 -59 212 -117 307 -143 67 -18 107 -21 245 -22 151 0 173 3
255 28 106 31 261 107 257 125 -1 7 2 10 8 6 15 -9 107 63 178 140 78 83 143
184 136 210 -4 14 -3 16 4 7 12 -18 63 98 93 213 31 124 32 321 1 446 -24 97
-80 231 -93 223 -5 -3 -6 1 -4 8 8 21 -65 128 -146 213 -119 125 -286 223
-459 270 -74 20 -316 29 -393 15z m835 -548 c19 -19 23 -855 4 -871 -9 -8
-212 -10 -682 -9 l-669 3 -3 418 c-1 284 1 424 9 438 5 11 20 24 32 29 13 5
298 8 659 7 507 -2 640 -5 650 -15z"/>
<path d="M5451 2027 c2 -2 66 -61 143 -130 76 -70 143 -124 149 -120 5 3 7 1
4 -4 -4 -6 52 -64 123 -128 144 -129 129 -125 197 -61 18 16 30 33 27 38 -3 5
0 7 8 6 7 -2 12 3 10 10 -1 8 2 11 7 7 12 -7 221 182 218 198 -1 6 5 11 14 12
8 0 58 39 110 87 l94 87 -554 1 c-305 0 -553 -1 -550 -3z m360 -304 c13 -16
12 -17 -3 -4 -10 7 -18 15 -18 17 0 8 8 3 21 -13z"/>
<path d="M5360 1658 c0 -200 4 -358 8 -353 4 6 51 50 104 99 54 48 95 93 91
99 -3 6 -1 7 6 3 7 -4 47 26 101 75 68 62 86 84 77 93 -7 6 -84 77 -172 156
-88 80 -166 151 -173 158 -8 7 -18 9 -24 6 -6 -4 -8 -2 -4 4 3 6 2 13 -4 17
-7 4 -10 -113 -10 -357z"/>
<path d="M6412 1814 c-100 -92 -181 -170 -180 -174 2 -4 84 -80 183 -169 l180
-163 3 172 c1 94 1 245 0 336 l-3 165 -183 -167z"/>
<path d="M5681 1509 c-67 -61 -119 -114 -116 -119 3 -4 -1 -7 -8 -6 -7 0 -44
-27 -81 -61 l-69 -63 574 0 c559 0 573 0 554 19 -11 10 -51 46 -90 81 -38 35
-92 84 -120 108 -27 25 -71 66 -97 91 l-48 45 -24 -24 c-14 -12 -23 -27 -20
-32 3 -5 0 -7 -8 -6 -7 2 -12 -3 -10 -10 1 -8 -2 -11 -8 -7 -6 4 -31 -12 -55
-34 -46 -43 -59 -48 -70 -30 -4 6 -14 8 -22 5 -8 -3 -12 -2 -9 3 8 13 -123
133 -136 125 -6 -4 -8 -3 -4 4 3 6 2 13 -2 16 -5 3 -64 -44 -131 -105z"/>
<path d="M8077 2630 c-228 -41 -448 -170 -587 -346 -77 -97 -123 -182 -167
-311 l-37 -108 -1 -180 c0 -193 8 -237 72 -390 43 -102 145 -251 164 -239 5 3
6 -1 3 -9 -11 -30 173 -173 307 -237 142 -68 219 -84 404 -84 124 0 174 4 225
18 115 32 217 76 297 128 92 60 236 196 228 216 -2 7 -1 10 4 7 21 -12 121
166 159 281 35 108 46 176 46 304 1 139 -17 236 -65 357 -109 276 -355 495
-644 573 -89 24 -322 36 -408 20z m-497 -294 c0 -2 -8 -10 -17 -17 -16 -13
-17 -12 -4 4 13 16 21 21 21 13z m776 -111 c27 -8 74 -30 104 -49 30 -19 58
-32 62 -29 5 2 7 1 6 -4 -2 -5 14 -29 34 -54 21 -25 50 -72 65 -105 25 -53 28
-70 28 -169 0 -99 -3 -116 -27 -168 -15 -32 -42 -77 -60 -100 -18 -23 -32 -42
-30 -44 1 -2 -1 -3 -5 -4 -17 -1 -43 -34 -38 -46 2 -8 1 -11 -4 -8 -14 8 -64
-62 -55 -76 4 -8 3 -9 -5 -5 -16 10 -95 -158 -127 -274 -40 -146 -69 -159 -98
-44 -37 146 -152 384 -178 368 -7 -4 -8 -3 -4 4 3 6 -22 43 -56 83 -84 95
-103 125 -129 201 -17 52 -20 78 -16 148 5 93 25 150 79 228 18 26 31 51 30
57 -2 5 0 7 4 3 4 -5 21 3 38 16 40 30 91 56 141 72 55 17 181 17 241 -1z"/>
<path d="M8129 2166 c-62 -24 -100 -47 -94 -56 3 -6 0 -7 -8 -4 -17 6 -78 -60
-105 -113 -74 -146 -44 -302 86 -445 102 -112 172 -227 217 -357 l23 -64 17
54 c9 30 39 96 66 148 27 51 46 98 42 104 -3 5 -1 7 4 4 14 -9 66 60 57 75 -4
6 -3 8 3 5 17 -10 102 88 131 151 23 49 27 70 27 147 0 76 -4 99 -26 145 -29
63 -86 133 -100 124 -5 -3 -8 0 -7 8 2 7 -5 12 -14 12 -10 -1 -15 2 -12 7 3 5
-21 21 -53 36 -70 32 -195 42 -254 19z m197 -212 c20 -10 45 -34 59 -59 40
-67 30 -140 -24 -189 -11 -10 -18 -22 -16 -27 3 -4 0 -11 -6 -15 -8 -5 -9 -3
-4 6 6 10 4 11 -11 5 -59 -25 -129 -17 -172 20 -16 13 -31 23 -33 20 -6 -5 -8
10 -15 90 -4 49 -1 66 16 93 42 67 131 91 206 56z m74 -490 c0 -8 -19 -13 -24
-6 -3 5 1 9 9 9 8 0 15 -2 15 -3z"/>
</g>
</svg>
